<svg width="34" height="34" viewBox="0 0 34 34" fill="none" xmlns="http://www.w3.org/2000/svg">
<path d="M16.9522 33.9045C12.615 33.9045 8.27777 32.2547 4.96666 28.9447C-1.65555 22.3245 -1.65555 11.5906 4.96666 4.9704C8.26719 1.66033 12.615 0 16.9522 0C21.2895 0 25.6267 1.64975 28.9378 4.95983C35.56 11.58 35.56 22.3139 28.9378 28.9341C25.6267 32.2442 21.2895 33.9045 16.9522 33.9045Z" fill="#59A1C9"/>
<path d="M20.549 10.4802H10.732C9.97034 10.4802 9.35678 11.0936 9.35678 11.855V11.9925C9.35678 12.0031 9.35678 12.0136 9.35678 12.0348V16.7091C9.35678 16.7197 9.35678 16.7197 9.35678 16.7302V16.8677C9.35678 16.8783 9.35678 16.8783 9.35678 16.8889V21.5632V21.7006C9.35678 21.8698 9.38852 22.0285 9.44141 22.1765C9.63183 22.7053 10.1396 23.0754 10.732 23.0754H20.549C21.3106 23.0754 21.9242 22.4621 21.9242 21.7006V21.5632C21.9242 20.8017 21.3106 20.1884 20.549 20.1884H12.2447V18.2319H20.549C21.3106 18.2319 21.9242 17.6186 21.9242 16.8571V16.7197C21.9242 15.9582 21.3106 15.3449 20.549 15.3449H12.2447V13.3567H20.549C21.3106 13.3567 21.9242 12.7433 21.9242 11.9819V11.8444C21.9136 11.0936 21.3 10.4802 20.549 10.4802ZM29.6466 16.5822L26.9067 13.8432C26.8538 13.7903 26.7903 13.7691 26.7163 13.7691C26.6422 13.7691 26.5788 13.7903 26.5259 13.8432L26.4307 13.9384V19.6173L26.5259 19.7125C26.5788 19.7654 26.6422 19.7865 26.7163 19.7865C26.7903 19.7865 26.8538 19.7654 26.9067 19.7125L29.6466 16.9735C29.7418 16.8571 29.7418 16.6879 29.6466 16.5822Z" fill="white"/>
</svg>
